<svg width="16" height="16" viewBox="0 0 16 16" fill="none" xmlns="http://www.w3.org/2000/svg">
<path fill-rule="evenodd" clip-rule="evenodd" d="M14 4.21875V13.125C14 13.6223 13.7893 14.0992 13.4142 14.4508C13.0391 14.8025 12.5304 15 12 15H11V14.0625H12C12.2652 14.0625 12.5196 13.9637 12.7071 13.7879C12.8946 13.6121 13 13.3736 13 13.125V4.21875H11C10.6022 4.21875 10.2206 4.07059 9.93934 3.80687C9.65804 3.54315 9.5 3.18546 9.5 2.8125V0.9375H4C3.73478 0.9375 3.48043 1.03627 3.29289 1.21209C3.10536 1.3879 3 1.62636 3 1.875V6.4375H2V1.875C2 1.37772 2.21071 0.900805 2.58579 0.549175C2.96086 0.197544 3.46957 0 4 0L9.5 0L14 4.21875Z" fill="#149DDD"/>
<circle cx="6.03489" cy="11.0349" r="2.47727" stroke="#149DDD" stroke-width="0.5"/>
<path d="M7.12257 6.83911C6.79317 5.7203 5.20683 5.7203 4.87743 6.83911L4.81868 7.0385C4.79567 7.1166 4.75548 7.18856 4.70105 7.24911C4.64663 7.30966 4.57934 7.35727 4.50412 7.38843C4.4289 7.4196 4.34767 7.43354 4.26636 7.42923C4.18506 7.42492 4.10575 7.40247 4.03425 7.36352L3.85174 7.26352C2.82668 6.70598 1.70598 7.8273 2.26414 8.85174L2.36352 9.03425C2.40247 9.10575 2.42492 9.18506 2.42923 9.26636C2.43354 9.34767 2.4196 9.4289 2.38843 9.50412C2.35727 9.57934 2.30966 9.64663 2.24911 9.70105C2.18856 9.75548 2.1166 9.79567 2.0385 9.81868L1.83911 9.87743C0.720295 10.2068 0.720295 11.7932 1.83911 12.1226L2.0385 12.1813C2.1166 12.2043 2.18856 12.2445 2.24911 12.2989C2.30966 12.3534 2.35727 12.4207 2.38843 12.4959C2.4196 12.5711 2.43354 12.6523 2.42923 12.7336C2.42492 12.8149 2.40247 12.8942 2.36352 12.9657L2.26352 13.1483C1.70598 14.1733 2.82668 15.2946 3.85174 14.7359L4.03425 14.6365C4.10575 14.5975 4.18506 14.5751 4.26636 14.5708C4.34767 14.5665 4.4289 14.5804 4.50412 14.6116C4.57934 14.6427 4.64663 14.6903 4.70105 14.7509C4.75548 14.8114 4.79567 14.8834 4.81868 14.9615L4.87743 15.1609C5.20683 16.2797 6.79317 16.2797 7.12257 15.1609L7.18132 14.9615C7.20433 14.8834 7.24452 14.8114 7.29895 14.7509C7.35338 14.6903 7.42066 14.6427 7.49588 14.6116C7.5711 14.5804 7.65233 14.5665 7.73364 14.5708C7.81494 14.5751 7.89425 14.5975 7.96575 14.6365L8.14826 14.7365C9.17332 15.2946 10.2946 14.1727 9.73586 13.1483L9.63648 12.9657C9.59753 12.8942 9.57509 12.8149 9.57078 12.7336C9.56646 12.6523 9.5804 12.5711 9.61157 12.4959C9.64273 12.4207 9.69034 12.3534 9.75089 12.2989C9.81144 12.2445 9.8834 12.2043 9.9615 12.1813L10.1609 12.1226C11.2797 11.7932 11.2797 10.2068 10.1609 9.87743L9.9615 9.81868C9.8834 9.79567 9.81144 9.75548 9.75089 9.70105C9.69034 9.64663 9.64273 9.57934 9.61157 9.50412C9.5804 9.4289 9.56646 9.34767 9.57078 9.26636C9.57509 9.18506 9.59753 9.10575 9.63648 9.03425L9.73648 8.85174C10.2946 7.82668 9.1727 6.70598 8.14826 7.26414L7.96575 7.36352C7.89425 7.40247 7.81494 7.42492 7.73364 7.42923C7.65233 7.43354 7.5711 7.4196 7.49588 7.38843C7.42066 7.35727 7.35338 7.30966 7.29895 7.24911C7.24452 7.18856 7.20433 7.1166 7.18132 7.0385L7.12257 6.83911ZM5.47684 7.016C5.6306 6.49409 6.3694 6.49409 6.52316 7.016L6.58191 7.21539C6.6313 7.38295 6.71757 7.53734 6.83438 7.66723C6.9512 7.79712 7.0956 7.89922 7.257 7.96605C7.41841 8.03287 7.59272 8.06273 7.76716 8.05343C7.94161 8.04414 8.11176 7.99591 8.26514 7.91231L8.44703 7.8123C8.92456 7.55291 9.44709 8.07482 9.18707 8.55297L9.08769 8.73548C9.00421 8.88888 8.95611 9.05902 8.94691 9.23342C8.93771 9.40783 8.96765 9.58208 9.03453 9.74341C9.10142 9.90474 9.20355 10.0491 9.33344 10.1658C9.46334 10.2825 9.61771 10.3687 9.78524 10.4181L9.984 10.4768C10.5059 10.6306 10.5059 11.3694 9.984 11.5232L9.78461 11.5819C9.61705 11.6313 9.46266 11.7176 9.33277 11.8344C9.20288 11.9512 9.10078 12.0956 9.03395 12.257C8.96713 12.4184 8.93727 12.5927 8.94657 12.7672C8.95587 12.9416 9.00409 13.1118 9.08769 13.2651L9.1877 13.447C9.44709 13.9246 8.92518 14.4471 8.44703 14.1871L8.26514 14.0877C8.11172 14.0041 7.94152 13.9559 7.76705 13.9466C7.59257 13.9374 7.41823 13.9673 7.25682 14.0342C7.09541 14.1011 6.95101 14.2032 6.83423 14.3332C6.71744 14.4632 6.63123 14.6176 6.58191 14.7852L6.52316 14.984C6.3694 15.5059 5.6306 15.5059 5.47684 14.984L5.41809 14.7846C5.36868 14.6171 5.28243 14.4628 5.16565 14.333C5.04888 14.2032 4.90455 14.1011 4.74323 14.0343C4.5819 13.9675 4.40768 13.9376 4.23331 13.9468C4.05894 13.9561 3.88884 14.0042 3.73548 14.0877L3.55297 14.1877C3.07544 14.4471 2.55291 13.9252 2.81293 13.447L2.91231 13.2651C2.99603 13.1117 3.04435 12.9415 3.05371 12.767C3.06307 12.5925 3.03324 12.4181 2.9664 12.2566C2.89956 12.0951 2.79742 11.9506 2.66747 11.8338C2.53751 11.7169 2.38304 11.6307 2.21539 11.5813L2.016 11.5225C1.49409 11.3688 1.49409 10.63 2.016 10.4762L2.21539 10.4175C2.38278 10.368 2.537 10.2818 2.66676 10.1651C2.79652 10.0483 2.89853 9.90407 2.96534 9.74283C3.03215 9.58159 3.06207 9.40745 3.05289 9.23315C3.04371 9.05886 2.99568 8.88882 2.91231 8.73548L2.8123 8.55297C2.55291 8.07544 3.07482 7.55291 3.55297 7.81293L3.73548 7.91231C3.88884 7.9958 4.05894 8.04392 4.23331 8.05316C4.40768 8.0624 4.5819 8.03251 4.74323 7.9657C4.90455 7.89888 5.04888 7.79682 5.16565 7.66699C5.28243 7.53717 5.36868 7.38287 5.41809 7.21539L5.47684 7.016Z" fill="#149DDD"/>
<path d="M4.51237 11.909H4.18164L4.7838 10.0908H5.16632L5.76931 11.909H5.43858L4.98174 10.4637H4.96838L4.51237 11.909ZM4.52323 11.1961H5.42522V11.4607H4.52323V11.1961Z" fill="#149DDD"/>
<path d="M5.9946 11.909V10.0908H6.63602C6.76742 10.0908 6.87766 10.1169 6.96675 10.1689C7.05639 10.221 7.12404 10.2926 7.1697 10.3838C7.21591 10.4743 7.23902 10.5773 7.23902 10.6927C7.23902 10.8093 7.21591 10.9129 7.1697 11.0035C7.12348 11.094 7.05528 11.1653 6.96508 11.2174C6.87488 11.2689 6.7638 11.2947 6.63184 11.2947H6.20674V11.0239H6.59008C6.66692 11.0239 6.72984 11.0097 6.77883 10.9813C6.82783 10.9529 6.86402 10.9138 6.88741 10.8641C6.91135 10.8144 6.92332 10.7573 6.92332 10.6927C6.92332 10.6282 6.91135 10.5714 6.88741 10.5223C6.86402 10.4732 6.82755 10.435 6.778 10.4078C6.729 10.3799 6.66581 10.366 6.58841 10.366H6.30445V11.909H5.9946Z" fill="#149DDD"/>
<path d="M7.818 10.0908V11.909H7.50815V10.0908H7.818Z" fill="#149DDD"/>
</svg>
