<svg width="16" height="16" viewBox="0 0 16 16" fill="none" xmlns="http://www.w3.org/2000/svg">
<path fill-rule="evenodd" clip-rule="evenodd" d="M14 4.21875V13.125C14 13.6223 13.7893 14.0992 13.4142 14.4508C13.0391 14.8025 12.5304 15 12 15H11V14.0625H12C12.2652 14.0625 12.5196 13.9637 12.7071 13.7879C12.8946 13.6121 13 13.3736 13 13.125V4.21875H11C10.6022 4.21875 10.2206 4.07059 9.93934 3.80687C9.65804 3.54315 9.5 3.18546 9.5 2.8125V0.9375H4C3.73478 0.9375 3.48043 1.03627 3.29289 1.21209C3.10536 1.3879 3 1.62636 3 1.875V8.4375H2V1.875C2 1.37772 2.21071 0.900806 2.58579 0.549175C2.96086 0.197544 3.46957 0 4 0L9.5 0L14 4.21875Z" fill="#149DDD"/>
<g clip-path="url(#clip0_206_6)">
<path d="M3.89844 13.5001H5.20156C5.87806 13.5001 6.28456 13.1596 6.28456 12.6016C6.28456 12.1884 5.99919 11.8831 5.57056 11.8389V11.8014C5.88256 11.7489 6.12631 11.4526 6.12631 11.1204C6.12631 10.6329 5.76819 10.3291 5.17306 10.3291H3.89844V13.5001ZM4.39081 11.672V10.7469H5.05831C5.42319 10.7469 5.63656 10.9182 5.63656 11.2107C5.63656 11.5115 5.41006 11.672 4.97506 11.672H4.39081ZM4.39081 13.0827V12.0609H5.07406C5.53756 12.0609 5.78169 12.2345 5.78169 12.5664C5.78169 12.9024 5.54656 13.0827 5.10256 13.0827H4.39081Z" fill="#149DDD"/>
<path d="M2 10.5C2 10.1022 2.15804 9.72064 2.43934 9.43934C2.72064 9.15804 3.10218 9 3.5 9H6.5C6.89782 9 7.27936 9.15804 7.56066 9.43934C7.84196 9.72064 8 10.1022 8 10.5V13.5C8 13.8978 7.84196 14.2794 7.56066 14.5607C7.27936 14.842 6.89782 15 6.5 15H3.5C3.10218 15 2.72064 14.842 2.43934 14.5607C2.15804 14.2794 2 13.8978 2 13.5V10.5ZM3.5 9.375C3.20163 9.375 2.91548 9.49353 2.7045 9.7045C2.49353 9.91548 2.375 10.2016 2.375 10.5V13.5C2.375 13.7984 2.49353 14.0845 2.7045 14.2955C2.91548 14.5065 3.20163 14.625 3.5 14.625H6.5C6.79837 14.625 7.08452 14.5065 7.2955 14.2955C7.50647 14.0845 7.625 13.7984 7.625 13.5V10.5C7.625 10.2016 7.50647 9.91548 7.2955 9.7045C7.08452 9.49353 6.79837 9.375 6.5 9.375H5H3.5Z" fill="#149DDD"/>
</g>
<defs>
<clipPath id="clip0_206_6">
<rect width="6" height="6" fill="white" transform="translate(2 9)"/>
</clipPath>
</defs>
</svg>
