<svg width="16" height="16" viewBox="0 0 16 16" fill="none" xmlns="http://www.w3.org/2000/svg">
<path fill-rule="evenodd" clip-rule="evenodd" d="M14 4.21875V13.125C14 13.6223 13.7893 14.0992 13.4142 14.4508C13.0391 14.8025 12.5304 15 12 15H11V14.0625H12C12.2652 14.0625 12.5196 13.9637 12.7071 13.7879C12.8946 13.6121 13 13.3736 13 13.125V4.21875H11C10.6022 4.21875 10.2206 4.07059 9.93934 3.80687C9.65804 3.54315 9.5 3.18546 9.5 2.8125V0.9375H4C3.73478 0.9375 3.48043 1.03627 3.29289 1.21209C3.10536 1.3879 3 1.62636 3 1.875V8.4375H2V1.875C2 1.37772 2.21071 0.900806 2.58579 0.549175C2.96086 0.197544 3.46957 0 4 0L9.5 0L14 4.21875Z" fill="#149DDD"/>
<path d="M5.95271 13.7526H5.9083C5.79461 13.7526 5.70312 13.6612 5.70312 13.5481C5.70312 13.4348 5.79485 13.3436 5.9083 13.3436H5.95271C6.36813 13.3436 6.70534 13.0076 6.70534 12.5935V11.5707C6.70534 11.1574 6.36813 10.8206 5.95271 10.8206H5.9083C5.79461 10.8206 5.70312 10.7292 5.70312 10.6161C5.70312 10.5028 5.79485 10.4116 5.9083 10.4116H5.95271C6.59382 10.4116 7.11593 10.932 7.11593 11.5709V12.5938C7.11593 13.2323 6.59454 13.7526 5.95271 13.7526Z" fill="#149DDD"/>
<path d="M5.95271 13.7526H5.9083C5.79461 13.7526 5.70312 13.6612 5.70312 13.5481C5.70312 13.4348 5.79485 13.3436 5.9083 13.3436H5.95271C6.36813 13.3436 6.70534 13.0076 6.70534 12.5935V11.5707C6.70534 11.1574 6.36813 10.8206 5.95271 10.8206H5.9083C5.79461 10.8206 5.70312 10.7292 5.70312 10.6161C5.70312 10.5028 5.79485 10.4116 5.9083 10.4116H5.95271C6.59382 10.4116 7.11593 10.932 7.11593 11.5709V12.5938C7.11593 13.2323 6.59454 13.7526 5.95271 13.7526Z" fill="#149DDD"/>
<path d="M5.0882 13.7526H4.18857C4.07488 13.7526 3.9834 13.6612 3.9834 13.5481V10.6159C3.9834 10.5026 4.07512 10.4114 4.18857 10.4114H5.0882C5.20189 10.4114 5.29337 10.5028 5.29337 10.6159C5.29337 10.7292 5.20165 10.8203 5.0882 10.8203H4.39375V13.3434H5.0882C5.20189 13.3434 5.29337 13.4348 5.29337 13.5479C5.29337 13.6612 5.20189 13.7526 5.0882 13.7526Z" fill="#149DDD"/>
<path d="M5.0882 13.7526H4.18857C4.07488 13.7526 3.9834 13.6612 3.9834 13.5481V10.6159C3.9834 10.5026 4.07512 10.4114 4.18857 10.4114H5.0882C5.20189 10.4114 5.29337 10.5028 5.29337 10.6159C5.29337 10.7292 5.20165 10.8203 5.0882 10.8203H4.39375V13.3434H5.0882C5.20189 13.3434 5.29337 13.4348 5.29337 13.5479C5.29337 13.6612 5.20189 13.7526 5.0882 13.7526Z" fill="#149DDD"/>
<path d="M8.79571 11.8774C8.5734 11.8774 8.39212 11.6967 8.39212 11.4752V10.3638C8.39212 9.61176 7.77829 9 7.02373 9H5.90928C5.79558 9 5.7041 9.09141 5.7041 9.20448C5.7041 9.31755 5.79583 9.40896 5.90928 9.40896H7.02373C7.55187 9.40896 7.98153 9.83717 7.98153 10.3635V11.4749C7.98153 11.7157 8.08701 11.9318 8.25453 12.0804C8.08556 12.2291 7.97815 12.4473 7.97815 12.6893V13.8007C7.97815 14.3271 7.54849 14.7553 7.02035 14.7553H5.90928C5.79558 14.7553 5.7041 14.8467 5.7041 14.9598C5.7041 15.0731 5.79583 15.1642 5.90928 15.1642H7.01963C7.77418 15.1642 8.38802 14.5525 8.38802 13.8005V12.6883C8.38802 12.4668 8.56929 12.2861 8.7916 12.2861H8.79498C8.90867 12.2861 9.00016 12.1947 9.00016 12.0816C9.00016 11.9688 8.90916 11.8774 8.79571 11.8774Z" fill="#149DDD"/>
<path d="M5.09088 14.7553H3.97715C3.44901 14.7553 3.01935 14.3271 3.01935 13.8007V12.6893C3.01935 12.4485 2.91387 12.2325 2.74635 12.0838C2.91532 11.9351 3.02273 11.717 3.02273 11.4749V10.364C3.02273 9.83766 3.45239 9.40945 3.98053 9.40945H5.08823C5.20192 9.40945 5.2934 9.31803 5.2934 9.20497C5.2934 9.0919 5.20168 9.00049 5.08823 9.00049H3.98053C3.22597 9.00049 2.61214 9.61225 2.61214 10.3643V11.4757C2.61214 11.6972 2.43086 11.8779 2.20855 11.8779H2.20517C2.09148 11.8779 2 11.9693 2 12.0824C2 12.1954 2.09172 12.2869 2.20517 12.2869C2.42749 12.2869 2.60876 12.4675 2.60876 12.6891V13.8005C2.60876 14.5525 3.22259 15.1643 3.97715 15.1643H5.09112C5.20481 15.1643 5.2963 15.0728 5.2963 14.9598C5.2963 14.8467 5.20457 14.7553 5.09088 14.7553Z" fill="#149DDD"/>
</svg>
