<svg width="16" height="16" viewBox="0 0 16 16" fill="none" xmlns="http://www.w3.org/2000/svg">
<path fill-rule="evenodd" clip-rule="evenodd" d="M14 4.21875V13.125C14 13.6223 13.7893 14.0992 13.4142 14.4508C13.0391 14.8025 12.5304 15 12 15H11V14.0625H12C12.2652 14.0625 12.5196 13.9637 12.7071 13.7879C12.8946 13.6121 13 13.3736 13 13.125V4.21875H11C10.6022 4.21875 10.2206 4.07059 9.93934 3.80687C9.65804 3.54315 9.5 3.18546 9.5 2.8125V0.9375H4C3.73478 0.9375 3.48043 1.03627 3.29289 1.21209C3.10536 1.3879 3 1.62636 3 1.875V8.4375H2V1.875C2 1.37772 2.21071 0.900806 2.58579 0.549175C2.96086 0.197544 3.46957 0 4 0L9.5 0L14 4.21875Z" fill="#149DDD"/>
<path d="M2.79403 15.5455V10.0909H3.14347V15.5455H2.79403ZM3.80185 11.8359C3.78196 11.6499 3.69815 11.505 3.55043 11.4013C3.40412 11.2976 3.21378 11.2457 2.9794 11.2457C2.81463 11.2457 2.6733 11.2706 2.5554 11.3203C2.4375 11.37 2.3473 11.4375 2.2848 11.5227C2.2223 11.608 2.19034 11.7053 2.18892 11.8146C2.18892 11.9055 2.20952 11.9844 2.25071 12.0511C2.29332 12.1179 2.35085 12.1747 2.4233 12.2216C2.49574 12.267 2.57599 12.3054 2.66406 12.3366C2.75213 12.3679 2.84091 12.3942 2.9304 12.4155L3.33949 12.5178C3.50426 12.5561 3.66264 12.608 3.81463 12.6733C3.96804 12.7386 4.10511 12.821 4.22585 12.9205C4.34801 13.0199 4.4446 13.1399 4.51562 13.2805C4.58665 13.4212 4.62216 13.5859 4.62216 13.7749C4.62216 14.0305 4.55682 14.2557 4.42614 14.4503C4.29545 14.6435 4.10653 14.7947 3.85938 14.9041C3.61364 15.0121 3.31605 15.0661 2.96662 15.0661C2.62713 15.0661 2.33239 15.0135 2.08239 14.9084C1.83381 14.8033 1.6392 14.6499 1.49858 14.4482C1.35938 14.2464 1.28409 14.0007 1.27273 13.7109H2.05043C2.06179 13.8629 2.10866 13.9893 2.19105 14.0902C2.27344 14.1911 2.38068 14.2663 2.51278 14.3161C2.64631 14.3658 2.79545 14.3906 2.96023 14.3906C3.1321 14.3906 3.28267 14.3651 3.41193 14.3139C3.54261 14.2614 3.64489 14.1889 3.71875 14.0966C3.79261 14.0028 3.83026 13.8935 3.83168 13.7685C3.83026 13.6548 3.79688 13.5611 3.73153 13.4872C3.66619 13.4119 3.57457 13.3494 3.45668 13.2997C3.3402 13.2486 3.20384 13.2031 3.04759 13.1634L2.55114 13.0355C2.19176 12.9432 1.90767 12.8033 1.69886 12.6158C1.49148 12.4268 1.38778 12.1761 1.38778 11.8636C1.38778 11.6065 1.45739 11.3814 1.59659 11.1882C1.73722 10.995 1.92827 10.8452 2.16974 10.7386C2.41122 10.6307 2.68466 10.5767 2.99006 10.5767C3.29972 10.5767 3.57102 10.6307 3.80398 10.7386C4.03835 10.8452 4.2223 10.9936 4.35582 11.1839C4.48935 11.3729 4.55824 11.5902 4.5625 11.8359H3.80185ZM5.09464 12.8331V12.4602C5.33612 12.4602 5.50444 12.4112 5.59961 12.3132C5.6962 12.2138 5.7445 12.0526 5.7445 11.8295V11.2862C5.7445 11.0462 5.77433 10.8494 5.83398 10.696C5.89506 10.5426 5.98384 10.4233 6.10032 10.3381C6.2168 10.2528 6.35884 10.1939 6.52646 10.1612C6.69407 10.1271 6.88441 10.1101 7.09748 10.1101V10.7024C6.92987 10.7024 6.80131 10.7259 6.71183 10.7727C6.62234 10.8182 6.56055 10.8885 6.52646 10.9837C6.49379 11.0788 6.47745 11.2003 6.47745 11.348V12.0469C6.47745 12.1562 6.45898 12.2585 6.42205 12.3537C6.38512 12.4489 6.31765 12.5327 6.21964 12.6051C6.12163 12.6761 5.98171 12.7322 5.79989 12.7734C5.6195 12.8132 5.38441 12.8331 5.09464 12.8331ZM7.09748 15.5241C6.88441 15.5241 6.69407 15.5071 6.52646 15.473C6.35884 15.4403 6.2168 15.3814 6.10032 15.2962C5.98384 15.2109 5.89506 15.0916 5.83398 14.9382C5.77433 14.7848 5.7445 14.5881 5.7445 14.348V13.8068C5.7445 13.5838 5.6962 13.4233 5.59961 13.3253C5.50444 13.2259 5.33612 13.1761 5.09464 13.1761V12.8033C5.38441 12.8033 5.6195 12.8239 5.79989 12.8651C5.98171 12.9048 6.12163 12.9609 6.21964 13.0334C6.31765 13.1044 6.38512 13.1875 6.42205 13.2827C6.45898 13.3778 6.47745 13.4794 6.47745 13.5874V14.2862C6.47745 14.4339 6.49379 14.5554 6.52646 14.6506C6.56055 14.7457 6.62234 14.8168 6.71183 14.8636C6.80131 14.9105 6.92987 14.9339 7.09748 14.9339V15.5241ZM5.09464 13.1761V12.4602H5.77006V13.1761H5.09464ZM9.42045 12.8033V13.1761C9.17898 13.1761 9.00994 13.2259 8.91335 13.3253C8.81818 13.4233 8.7706 13.5838 8.7706 13.8068V14.348C8.7706 14.5881 8.74006 14.7848 8.67898 14.9382C8.61932 15.0916 8.53125 15.2109 8.41477 15.2962C8.2983 15.3814 8.15625 15.4403 7.98864 15.473C7.82102 15.5071 7.63068 15.5241 7.41761 15.5241V14.9339C7.58523 14.9339 7.71378 14.9105 7.80327 14.8636C7.89276 14.8168 7.95384 14.7457 7.98651 14.6506C8.0206 14.5554 8.03764 14.4339 8.03764 14.2862V13.5874C8.03764 13.4794 8.05611 13.3778 8.09304 13.2827C8.12997 13.1875 8.19744 13.1044 8.29545 13.0334C8.39347 12.9609 8.53267 12.9048 8.71307 12.8651C8.89489 12.8239 9.13068 12.8033 9.42045 12.8033ZM7.41761 10.1101C7.63068 10.1101 7.82102 10.1271 7.98864 10.1612C8.15625 10.1939 8.2983 10.2528 8.41477 10.3381C8.53125 10.4233 8.61932 10.5426 8.67898 10.696C8.74006 10.8494 8.7706 11.0462 8.7706 11.2862V11.8295C8.7706 12.0526 8.81818 12.2138 8.91335 12.3132C9.00994 12.4112 9.17898 12.4602 9.42045 12.4602V12.8331C9.13068 12.8331 8.89489 12.8132 8.71307 12.7734C8.53267 12.7322 8.39347 12.6761 8.29545 12.6051C8.19744 12.5327 8.12997 12.4489 8.09304 12.3537C8.05611 12.2585 8.03764 12.1562 8.03764 12.0469V11.348C8.03764 11.2003 8.0206 11.0788 7.98651 10.9837C7.95384 10.8885 7.89276 10.8182 7.80327 10.7727C7.71378 10.7259 7.58523 10.7024 7.41761 10.7024V10.1101ZM9.42045 12.4602V13.1761H8.74503V12.4602H9.42045Z" fill="#149DDD"/>
</svg>
