<svg width="16" height="16" viewBox="0 0 16 16" fill="none" xmlns="http://www.w3.org/2000/svg">
<path fill-rule="evenodd" clip-rule="evenodd" d="M14 4.21875V13.125C14 13.6223 13.7893 14.0992 13.4142 14.4508C13.0391 14.8025 12.5304 15 12 15H11V14.0625H12C12.2652 14.0625 12.5196 13.9637 12.7071 13.7879C12.8946 13.6121 13 13.3736 13 13.125V4.21875H11C10.6022 4.21875 10.2206 4.07059 9.93934 3.80687C9.65804 3.54315 9.5 3.18546 9.5 2.8125V0.9375H4C3.73478 0.9375 3.48043 1.03627 3.29289 1.21209C3.10536 1.3879 3 1.62636 3 1.875V8.4375H2V1.875C2 1.37772 2.21071 0.900806 2.58579 0.549175C2.96086 0.197544 3.46957 0 4 0L9.5 0L14 4.21875Z" fill="#149DDD"/>
<path d="M6.00023 10C4.9333 10 4.26679 10.5556 3.99977 11.6667C4.39995 11.1114 4.86649 10.9029 5.39984 11.0418C5.70411 11.1209 5.92178 11.3508 6.16226 11.6054C6.55453 12.0201 7.0085 12.5 8 12.5C9.0667 12.5 9.73321 11.9444 10 10.8335C9.60005 11.3888 9.13328 11.5974 8.60016 11.4582C8.29566 11.3791 8.07799 11.1492 7.8375 10.8946C7.44523 10.4802 6.99127 10 6.00023 10ZM3.99977 12.5C2.93354 12.5 2.26656 13.0556 2 14.1667C2.39995 13.6112 2.86672 13.4029 3.39984 13.5418C3.70434 13.6209 3.92201 13.8508 4.1625 14.1054C4.55477 14.5201 5.00873 15 6.00023 15C7.06693 15 7.73344 14.4447 8 13.3335C7.60005 13.8888 7.13351 14.0974 6.60016 13.9584C6.29589 13.8791 6.07822 13.649 5.8375 13.3946C5.44547 12.9799 4.99127 12.5 3.99977 12.5Z" fill="#149DDD"/>
</svg>
